<?xml version="1.0" encoding="UTF-8"?>
<!DOCTYPE svg PUBLIC "-//W3C//DTD SVG 1.1//EN" "http://www.w3.org/Graphics/SVG/1.1/DTD/svg11.dtd">

<svg xmlns="http://www.w3.org/2000/svg" xml:space="preserve" width="4mm" height="4mm" version="1.1" style="shape-rendering:geometricPrecision; text-rendering:geometricPrecision; image-rendering:optimizeQuality; fill-rule:evenodd; clip-rule:evenodd"
viewBox="0 0 17.38 17.38"
 xmlnsXlink="http://www.w3.org/1999/xlink"
 xmlnsXodm="http://www.corel.com/coreldraw/odm/2003">
 <g fill="#3df04f">
 <!-- <g id="Warstwa_x0020_1"> -->
  <metadata id="CorelCorpID_0Corel-Layer"/>
  <path class="fil0" d="M8.69 0c-4.8,0 -8.69,3.89 -8.69,8.69 0,4.8 3.89,8.69 8.69,8.69 4.8,0 8.69,-3.89 8.69,-8.69 0,-4.8 -3.89,-8.69 -8.69,-8.69zm-2.01 11.41l6.71 -7.55c0.38,-0.43 1.04,-0.47 1.47,-0.09 0.43,0.38 0.47,1.04 0.09,1.47l-7.33 8.25c-0.38,0.43 -1.15,0.5 -1.58,0.12l-3.51 -3.11c-0.43,-0.38 -0.47,-1.04 -0.09,-1.47 0.38,-0.43 1.04,-0.47 1.47,-0.09l2.78 2.46z"/>
 </g>
</svg>
 